<?xml version='1.0' encoding='utf-8'?>
<svg xmlns="http://www.w3.org/2000/svg" width="100px" height="100px" enable-background="new 746.5 1012 100 100" version="1.1" viewBox="746.5 1012 100 100"> <path d="m796.5 1110.4c-26.674 0-48.375-21.701-48.375-48.375s21.701-48.375 48.375-48.375 48.375 21.701 48.375 48.375-21.701 48.375-48.375 48.375zm0-93.75c-25.02 0-45.375 20.355-45.375 45.375s20.355 45.375 45.375 45.375 45.375-20.355 45.375-45.375-20.355-45.375-45.375-45.375z"/> <g transform="translate(0 2124) scale(.1 -.1)"> <path d="m7960.4 11028c-6.064-2.651-30.308-32.837-65.552-81.719-61.382-84.878-110.52-175.18-136.28-250.72-23.994-70.221-31.069-129.97-22.104-184.66 5.811-35.117 23.496-67.07 49.766-89.688 33.979-29.297 79.951-48.496 133.63-56.074l10.356-1.387 0.376-72.266c0.381-79.199 0.137-75.898 8.086-79.688 3.159-1.504 9.219-1.895 27.285-1.895 20.698 0 23.491 0.234 27.163 2.539 2.637 1.621 4.414 3.906 5.293 7.188 0.879 3.145 1.406 29.414 1.406 74.395v69.59l10.469 1.523c33.105 4.805 61.387 13.145 86.133 25.273 75.273 36.992 105.35 91.934 100.41 183.38-0.605 11.738-2.148 27.168-3.145 34.238-16.289 106.48-77.051 230.38-181 369.2-28.672 38.267-41.426 52.29-47.612 52.29-0.635 3e-3 -2.783-0.632-4.683-1.516zm-8.842-228.86-0.381-60-55.19 38.018-55.322 38.145 4.043 7.075c23.369 41.431 63.906 102.18 96.25 144.12l10.22 13.262 0.381-60.376c0.13-33.092 0.13-87.276-1e-3 -120.24zm37.895 167.09c31.563-41.045 69.219-97.251 92.207-137.42 4.16-7.324 7.441-13.389 7.324-13.389 0-0.127-23.379-16.289-51.914-35.873-28.418-19.703-53.301-36.754-55.195-38.141l-3.535-2.396v119.99c0 66.055 0.254 120.11 0.508 120.11 0.371 1e-3 5.058-5.809 10.605-12.885zm-98.389-216.36 60.625-41.68 0.122-54.693c0-46.352-0.254-54.574-1.768-53.676-1.011 0.508-37.261 25.512-80.708 55.322l-78.818 54.311 2.402 6.314c10.234 26.65 34.229 76.914 36.377 76.156 0.636-0.247 28.424-19.066 61.768-42.054zm219.38 25.635c12.246-24.371 28.301-61.256 28.301-64.918 0-1.133-146.9-103.58-158.77-110.9-1.27-0.762-1.641 10.352-1.641 53.813l0.117 54.693 60.879 41.928c33.477 23.121 61.27 41.939 61.777 42.066 0.626-1e-3 4.806-7.458 9.337-16.68zm-241.36-150.68 82.603-56.859 0.122-49.004c0-37.871-0.376-48.75-1.514-48.125-1.011 0.645-185.17 127.32-188.95 129.98-0.132 0.137 0.884 6.699 2.144 14.662 2.656 15.537 9.351 42.188 14.653 58.98 3.154 9.984 3.53 10.492 5.806 8.842 1.264-0.878 39.662-27.158 85.136-58.476zm286.71 36.637c5.176-18.32 10.859-43.58 12.383-55.586l0.762-5.059-92.852-63.789c-50.898-35.117-93.848-64.551-95.234-65.547l-2.52-1.758 0.254 49.004 0.371 49.004 84.629 58.359c61.641 42.432 84.883 57.973 85.645 56.713 0.487-0.888 3.534-10.488 6.562-21.341zm-299.47-156.64 95.361-65.684 0.122-25.508v-25.645h-4.292c-8.462 0-43.198 5.039-56.079 8.223-36.001 8.711-69.976 26.387-92.456 48.242-29.053 27.793-40.288 58.34-40.42 108.75 0 10.723 0.508 17.949 1.138 17.676 0.63-0.116 44.209-29.921 96.626-66.054zm314.88 41.055c-1.523-46.855-10.996-71.855-37.52-98.652-23.613-23.867-56.836-41.797-94.98-51.016-12.891-3.184-47.617-8.223-56.074-8.223h-4.297l0.254 25.508 0.371 25.527 95.996 66.191c76.934 52.91 96.133 65.664 96.504 63.789 0.234-1.269 0.117-11.64-0.254-23.124zm-197.93-246.91v-62.559h-16.421v125.06h16.421v-62.5z"/> </g> </svg>